<?xml version="1.0" encoding="utf-8"?>
<!-- Generator: Adobe Illustrator 16.0.0, SVG Export Plug-In . SVG Version: 6.00 Build 0)  -->
<!DOCTYPE svg PUBLIC "-//W3C//DTD SVG 1.1//EN" "http://www.w3.org/Graphics/SVG/1.1/DTD/svg11.dtd">
<svg version="1.1" id="Layer_1" xmlns="http://www.w3.org/2000/svg" xmlns:xlink="http://www.w3.org/1999/xlink" x="0px" y="0px"
	 width="1633.711px" height="1963.393px" viewBox="-0.001 -0.001 1633.711 1963.393"
	 enable-background="new -0.001 -0.001 1633.711 1963.393" xml:space="preserve">
<path fill="#B46437" d="M906.716,105.185c127.18-31.007,293.48,6.797,388.912,109.209c0.375,0,0.754,0.379,0.754,0.759
	c-96.564,69.168-171.398,212.421-214.299,235.09c0.76-2.639,2.078-6.037,2.838-9.075c10.205-40.82,1.129-75.585-8.506-75.585
	c-5.287,0,5.668,22.669-15.113,81.643c-27.406,75.965-112.258,51.396-89.387-29.486c18.33-62.729,43.463-68.408,35.148-71.047
	c-7.184-2.658-43.848,19.271-56.504,65.01c-24.754-58.213-17.951-210.521-47.998-305.017
	C903.697,105.923,905.396,105.543,906.716,105.185"/>
<path fill="#B36438" d="M1238.75,1303.261c-123.213-20.771-223.75-117.146-443.527-165.521
	c-177.25-38.182-256.623-13.234-395.898-68.428c-103.932-41.562-188.781-134.158-185.191-258.498
	c7.365-249.823,215.809-285.367,293.092-361.711c76.545-77.104,158.176-222.615,294.803-301.22
	c31.75,46.119,55.184,120.564,73.705,174.998c-37.232-13.612-71.627-6.057-90.143,0.359
	c-136.633,47.639-231.309,317.871-99.779,395.335c118.676,69.927,241.316-37.021,264.377-237.35
	c1.318,1.521,2.453,2.279,3.969,3.039c13.793,25.688,42.52,39.683,69.352,32.864c2.834-0.739,5.668-1.499,8.312-2.639
	c-32.881,62.751-50.832,154.587-30.236,223.375c19.848,66.89,96.379,121.323,178.205,94.854
	c143.244-46.099,174.234-270.232,99.023-373.023c-16.062-21.551-44.033-44.979-76.344-50.277
	c44.219-36.662,100.723-85.799,151.93-104.689c60.66,128.499,84.66,306.136,108.473,373.783
	c22.301,65.391,87.686,137.195,116.221,266.076C1622.929,1141.877,1439.814,1336.903,1238.75,1303.261"/>
<path d="M1604.978,862.207c-33.824-94.875-82.012-146.271-101.668-201.063c-22.299-60.853-41.768-231.691-99.777-365.869
	c47.807-1.879,91.086,14.754,118.293,57.453c3.029,3.397,6.238,0.76,6.238-4.158c0.568-128.879-73.131-187.072-160.062-167.421
	c-9.449,1.499-18.33,4.538-27.4,8.696c-0.379-0.761-1.129-1.521-1.51-1.899c-104.689-120.943-294.99-169.32-457.506-127.36
	c-2.27-3.038-4.537-6.437-6.617-9.074c-59.711-69.549-155.145-76.725-233.381,28.726c-2.646,3.779-2.268,7.938,1.891,6.797
	c44.221-13.612,86.93-3.018,122.451,23.811c-139.273,86.179-223.934,239.247-292.342,305.757
	c-39.303,38.561-93.727,59.73-189.352,131.918c-112.248,84.66-178.957,306.895-55.744,456.925
	c66.139,80.502,164.594,120.204,249.633,136.437c26.078,4.918,51.967,7.955,78.424,9.836
	c-26.078,15.871-51.965,40.062-72.186,72.186c-35.154-41.58-80.123-77.104-135.688-100.152
	c-134.547-55.935-272.312-4.537-324.467,101.672c-59.344,122.442-4.35,255.479,107.908,342.039
	c82.762,63.49,263.615,169.321,381.721,73.707c23.25-18.531,40.061-45.738,50.268-77.104
	c58.012,41.56,131.338,71.806,207.307,82.001c-16.627,50.275,10.201,153.448,131.523,239.628
	c153.447,108.47,364.719,109.606,424.625-36.283c67.654-163.265-58.018-325.026-251.9-340.54
	c24.943-63.109,22.674-141.334,2.643-218.438c55.375,29.465,105.832,53.653,174.805,62.351
	c121.133,15.492,239.809-44.601,308.029-132.278C1648.062,1109.752,1649.197,986.17,1604.978,862.207 M906.716,105.185
	c127.18-31.007,293.48,6.797,388.912,109.209c0.375,0,0.754,0.379,0.754,0.759c-96.564,69.168-171.398,212.421-214.299,235.09
	c0.76-2.639,2.078-6.037,2.838-9.075c10.205-40.82,1.129-75.585-8.506-75.585c-5.287,0,5.668,22.669-15.113,81.643
	c-27.406,75.965-112.258,51.396-89.387-29.486c18.33-62.729,43.463-68.408,35.148-71.047c-7.184-2.658-43.848,19.271-56.504,65.01
	c-24.754-58.213-17.951-210.521-47.998-305.017C903.697,105.923,905.396,105.543,906.716,105.185 M1106.841,621.82
	c9.262-35.144,5.104-73.306-21.92-81.242c-18.141-4.917-34.203,5.658-45.543,23.43c7.752-22.688,17.387-43.84,27.781-61.23
	c43.65-11.335,83.711-51.396,110.928-72.565c81.258,0.379,125.852,105.45,105.256,217.697
	c-18.705,102.432-89.762,190.111-189.352,153.068c-48.756-18.513-71.621-66.51-72.945-124.723
	c-0.375-12.474,0.381-25.328,2.08-38.542c2.453,17.372,10.395,30.605,24.379,34.765
	C1071.882,680.413,1097.207,656.604,1106.841,621.82 M1059.224,580.642c2.828-13.234,9.635-22.312,18.326-20.411
	c10.395,2.259,11.148,14.354,8.5,27.587c-2.639,13.233-11.334,23.049-19.65,20.031
	C1056.765,604.828,1056.195,593.854,1059.224,580.642 M895.38,486.904c-23.998-8.696-50.455,12.474-62.17,49.517
	c-10.775,33.624-4.918,68.788,18.896,78.225c12.85,4.916,26.076,0.379,37.229-10.195c-31.182,65.009-81.639,117.924-151.748,102.412
	c-97.324-21.531-94.867-143.233-58.203-228.273c35.152-82.021,124.346-172.339,208.439-119.804
	c9.826,28.727,21.16,68.407,39.305,97.515c-0.375,18.131-3.209,40.801-8.883,64.25C916.546,504.676,909.744,491.44,895.38,486.904
	 M894.621,536.801c-3.969,12.454-13.793,21.15-22.484,18.132c-10.389-3.777-10.77-14.354-6.236-26.827
	c3.594-12.854,11.15-21.931,21.164-18.531C896.89,512.611,898.589,523.947,894.621,536.801 M342.06,1635.483
	c-56.873-13.612-117.164-44.979-167.24-83.141c-39.682-29.866-71.617-65.391-94.867-102.812c-2.078-5.655-5.285-11.713-8.686-18.891
	c-17.012-35.902,7.938-125.48,117.346-117.545c103.941,7.557,183.684,84.279,214.869,181.415
	C429.56,1577.292,385.91,1629.808,342.06,1635.483 M511.382,1584.089c-28.158,46.479-75.775,61.971-130.199,57.812
	c41.381-20.771,71.057-72.926,42.52-160.246c-41.568-127.738-147.971-188.211-228.854-195.388
	c-78.043-7.558-136.244,26.827-145.691,89.938c-11.344-46.858-6.996-94.855,17.953-137.936
	c45.35-79.764,143.053-109.609,228.281-86.561C532.361,1215.961,569.404,1489.213,511.382,1584.089 M575.82,1513.021
	c8.506-75.203-10.574-165.541-58.201-243.385c25.887-70.308,72.375-97.515,104.5-113.008c51.596,3.398,108.479,8.316,177.076,23.811
	c102.232,22.669,172.34,54.414,231.113,85.04c31.369,117.165,26.457,290.265-128.881,325.787
	C782.375,1618.474,654.625,1578.031,575.82,1513.021 M1059.224,1542.508c108.848,11.715,277.6,90.718,234.324,270.993
	c-26.645,110.729-187.836,144.752-334.863,60.852c-114.33-65.77-167.805-170.08-143.428-224.494
	c51.775,1.5,102.611-6.438,150.229-26.849C1007.628,1604.879,1038.623,1576.912,1059.224,1542.508 M1238.75,1303.261
	c-123.213-20.771-223.75-117.146-443.527-165.521c-177.25-38.182-256.623-13.234-395.898-68.428
	c-103.932-41.562-188.781-134.158-185.191-258.498c7.365-249.823,215.809-285.367,293.092-361.711
	c76.545-77.104,158.176-222.615,294.803-301.22c31.75,46.119,55.184,120.564,73.705,174.998
	c-37.232-13.612-71.627-6.057-90.143,0.359c-136.633,47.639-231.309,317.871-99.779,395.335
	c118.676,69.927,241.316-37.021,264.377-237.35c1.318,1.521,2.453,2.279,3.969,3.039c13.793,25.688,42.52,39.683,69.352,32.864
	c2.834-0.739,5.668-1.499,8.312-2.639c-32.881,62.751-50.832,154.587-30.236,223.375c19.848,66.89,96.379,121.323,178.205,94.854
	c143.244-46.099,174.234-270.232,99.023-373.023c-16.062-21.551-44.033-44.979-76.344-50.277
	c44.219-36.662,100.723-85.799,151.93-104.689c60.66,128.499,84.66,306.136,108.473,373.783
	c22.301,65.391,87.686,137.195,116.221,266.076C1622.929,1141.877,1439.814,1336.903,1238.75,1303.261 M1327.187,1120.347
	c34.77-87.679,50.457-215.06,28.348-227.912c-20.221-11.715-104.691,30.246-180.666,108.108
	c-73.506-44.601-174.607-90.718-305.002-120.942c-109.604-25.328-192.754-35.543-253.605-38.941
	c-46.857-105.83-97.883-198.807-128.498-195.009c-27.398,4.157-58.584,90.696-78.994,208.622
	c-17.191,5.276-29.285,11.715-30.426,20.41c-3.207,21.529,30.426,12.854,58.393,7.176c23.25-4.537,180.477-31.744,431.434,29.106
	c265.887,65.01,391.553,190.49,425.756,224.875c15.688,16.252,42.898,49.896,52.346,44.599c15.688-8.315,5.297-28.727-8.691-47.617
	C1336.064,1130.162,1332.476,1126.004,1327.187,1120.347 M490.412,842.179c-15.123,0.758-32.314,2.639-48.379,5.276
	c17.953-110.729,40.062-173.101,47.238-173.101c7.377,0,54.055,72.566,85.609,164.804
	C535.57,838.778,507.982,841.037,490.412,842.179 M1304.699,1097.297c-22.49-21.17-56.125-49.896-102.232-80.144
	c64.061-68.787,131.523-105.069,136.627-101.651C1343.625,918.899,1337.958,1002.802,1304.699,1097.297"/>
<path fill="#FFFFFF" d="M1106.841,621.82c9.262-35.144,5.104-73.306-21.92-81.242c-18.141-4.917-34.203,5.658-45.543,23.43
	c7.752-22.688,17.387-43.84,27.781-61.23c43.65-11.335,83.711-51.396,110.928-72.565c81.258,0.379,125.852,105.45,105.256,217.697
	c-18.705,102.432-89.762,190.111-189.352,153.068c-48.756-18.513-71.621-66.51-72.945-124.723
	c-0.375-12.474,0.381-25.328,2.08-38.542c2.453,17.372,10.395,30.605,24.379,34.765
	C1071.882,680.413,1097.207,656.604,1106.841,621.82"/>
<path fill="#FFFFFF" d="M1059.224,580.642c2.828-13.234,9.635-22.312,18.326-20.411c10.395,2.259,11.148,14.354,8.5,27.587
	c-2.639,13.233-11.334,23.049-19.65,20.031C1056.765,604.828,1056.195,593.854,1059.224,580.642"/>
<path fill="#FFFFFF" d="M895.38,486.904c-23.998-8.696-50.455,12.474-62.17,49.517c-10.775,33.624-4.918,68.788,18.896,78.225
	c12.85,4.916,26.076,0.379,37.229-10.195c-31.182,65.009-81.639,117.924-151.748,102.412
	c-97.324-21.531-94.867-143.233-58.203-228.273c35.152-82.021,124.346-172.339,208.439-119.804
	c9.826,28.727,21.16,68.407,39.305,97.515c-0.375,18.131-3.209,40.801-8.883,64.25C916.546,504.676,909.744,491.44,895.38,486.904"
	/>
<path fill="#FFFFFF" d="M894.621,536.801c-3.969,12.454-13.793,21.15-22.484,18.132c-10.389-3.777-10.77-14.354-6.236-26.827
	c3.594-12.854,11.15-21.931,21.164-18.531C896.89,512.611,898.589,523.947,894.621,536.801"/>
<path fill="#DDB06E" d="M342.06,1635.483c-56.873-13.612-117.164-44.979-167.24-83.141c-39.682-29.866-71.617-65.391-94.867-102.812
	c-2.078-5.655-5.285-11.713-8.686-18.891c-17.012-35.902,7.938-125.48,117.346-117.545
	c103.941,7.557,183.684,84.279,214.869,181.415C429.56,1577.292,385.91,1629.808,342.06,1635.483"/>
<path fill="#784638" d="M511.382,1584.089c-28.158,46.479-75.775,61.971-130.199,57.812c41.381-20.771,71.057-72.926,42.52-160.246
	c-41.568-127.738-147.971-188.211-228.854-195.388c-78.043-7.558-136.244,26.827-145.691,89.938
	c-11.344-46.858-6.996-94.855,17.953-137.936c45.35-79.764,143.053-109.609,228.281-86.561
	C532.361,1215.961,569.404,1489.213,511.382,1584.089"/>
<path fill="#F4DDA5" d="M575.82,1513.021c8.506-75.203-10.574-165.541-58.201-243.385c25.887-70.308,72.375-97.515,104.5-113.008
	c51.596,3.398,108.479,8.316,177.076,23.811c102.232,22.669,172.34,54.414,231.113,85.04
	c31.369,117.165,26.457,290.265-128.881,325.787C782.375,1618.474,654.625,1578.031,575.82,1513.021"/>
<path fill="#784738" d="M1059.224,1542.508c108.848,11.715,277.6,90.718,234.324,270.993
	c-26.645,110.729-187.836,144.752-334.863,60.852c-114.33-65.77-167.805-170.08-143.428-224.494
	c51.775,1.5,102.611-6.438,150.229-26.849C1007.628,1604.879,1038.623,1576.912,1059.224,1542.508"/>
<path fill="#FFFFFF" d="M490.412,842.179c-15.123,0.758-32.314,2.639-48.379,5.276c17.953-110.729,40.062-173.101,47.238-173.101
	c7.377,0,54.055,72.566,85.609,164.804C535.57,838.778,507.982,841.037,490.412,842.179"/>
<path fill="#FFFFFF" d="M1304.699,1097.297c-22.49-21.17-56.125-49.896-102.232-80.144
	c64.061-68.787,131.523-105.069,136.627-101.651C1343.625,918.899,1337.958,1002.802,1304.699,1097.297"/>
</svg>
