<?xml version='1.0' encoding='iso-8859-1'?>
<!DOCTYPE svg PUBLIC '-//W3C//DTD SVG 1.1//EN' 'http://www.w3.org/Graphics/SVG/1.1/DTD/svg11.dtd'>
<svg version="1.1" xmlns="http://www.w3.org/2000/svg" viewBox="0 0 460.049 460.049" xmlns:xlink="http://www.w3.org/1999/xlink" enable-background="new 0 0 460.049 460.049">
  <g>
    <path d="m271.939,363.536c1.216,21.776 9.716,86.696 9.716,86.696 0.429,3.81 3.65,6.691 7.485,6.691h51.346c3.494,0 6.53-2.403 7.331-5.805l33.918-143.934c21.275-24.482 36.055-53.346 36.282-76.404 3.501-3.868 6.487-7.631 8.885-10.892 14.557-19.795 24.596-47.458 24.596-62.553 12.22-35.251 7.818-79.122 7.616-80.957-0.261-2.366-1.789-4.402-3.988-5.314-2.198-0.911-4.72-0.555-6.579,0.933l-39.859,31.887c-14.277-3.757-32.444-3.625-42.156-3.537-9.978-0.091-28.682-0.224-43.324,3.857l-40.259-32.207c-1.859-1.487-4.38-1.843-6.579-0.933-2.199,0.912-3.727,2.949-3.988,5.315-0.21,1.899-4.811,46.769 9.082,82.822 0,3.683 0.685,9.4 2.01,14.089-32.203,12.643-95.437,35.998-162.133,52.479-6.141,1.518-11.771,3.82-16.893,6.865-2.427-13.989 0.629-28.035 8.736-39.849l37.393-54.494c10.973-15.991 14.722-35.229 10.555-54.17-4.167-18.941-15.643-34.83-32.314-44.739l-59.219-35.199c-2.683-1.595-6.074-1.37-8.524,0.569-2.448,1.938-3.446,5.186-2.51,8.165l12.252,38.972c4.491,14.281 1.563,29.767-7.829,41.426l-46.06,57.172c-14.986,18.6-20.365,42.585-14.759,65.804 5.605,23.219 21.335,42.108 43.157,51.823l27.442,12.217c-16.267,65.84 15.625,166.566 17.169,171.366 1.001,3.114 3.898,5.226 7.17,5.226h47.238c3.794,0 6.997-2.823 7.472-6.588l12.773-103.046c6.165-7.964 10.91-17.419 12.19-28.327 0,0 54.514,5.609 72.117,10.281 14.348,3.809 22.212,19.427 23.042,34.293zm174.899-273.451c0.246,9.729-0.042,24.136-2.629,39.114-2.186-3.851-4.848-7.343-7.991-10.457-3.998-3.961-8.516-7.068-13.306-9.516l23.926-19.141zm-115.175,27.574c4.696,8.32 12.278,24.082 17.228,46.067l-50.025-20.01c1.806-5.641 4.649-10.376 8.583-14.273 6.422-6.363 15.193-9.865 24.214-11.784zm93.952,11.785c3.934,3.897 6.777,8.631 8.583,14.273l-50.025,20.01c4.951-21.986 12.533-37.749 17.229-46.068 9.021,1.918 17.791,5.421 24.213,11.785zm-61.465-14.047c5.5-0.051 18.875-0.101 26.634,0.657-8.102,15.221-20.678,45.536-21.477,87.963-0.911,0.123-1.836,0.218-2.775,0.218-0.939,0-1.865-0.095-2.776-0.219-0.799-42.43-13.377-72.745-21.478-87.966 5.691-0.554 17.197-0.653 21.872-0.653zm-79.483-25.305l24.538,19.63c-4.438,2.37-8.625,5.322-12.359,9.021-3.723,3.688-6.769,7.908-9.148,12.629-2.94-15.735-3.284-31.078-3.031-41.28zm-163.546-37.761c13.052,7.758 22.037,20.197 25.299,35.026 0.385,1.75 0.676,3.503 0.89,5.255h-65.986c7.135-13.843 8.641-30.051 3.864-45.242l-6.339-20.165 42.272,25.126zm-46.315,50.324h72.783c-0.619,9.608-3.802,18.907-9.433,27.112l-37.393,54.494c-10.909,15.896-14.71,40.05-10.429,58.848-3.607,3.873-5.673,8.31-8.459,13.306-1.676,3.006-3.168,6.176-4.5,9.478l-25.922-11.54c-17.516-7.798-30.141-22.959-34.641-41.596-4.5-18.637-0.181-37.889 11.847-52.82l46.147-57.282zm62.9,339.204h-9.532v-65.712c4.519-2.298 11.8-6.389 19.379-12.206l-9.847,77.918zm32.862-138.998c-2.249-0.321-4.511,0.387-6.174,1.924-1.664,1.537-2.548,3.742-2.407,6.003 2.079,33.27-43.858,53.489-44.313,53.686-2.77,1.187-4.565,3.91-4.565,6.923v70.463h-10.413c-7.185-24.506-35.196-128.74-7.664-178.108 6.949-12.46 16.736-20.1 29.922-23.358 67.276-16.624 131.088-40.164 163.808-53 1.197,2.627 2.525,5.306 3.974,8.015-2.953,14.152-5.341,47.819 22.949,90.303 22.686,34.068 23.755,48.179 23.76,48.225 0.042,1.848 1.096,3.524 2.744,4.362 0.718,0.365 1.499,0.546 2.276,0.546 1.006,0 2.009-0.303 2.866-0.898 0.434-0.302 6.233-4.363 14.354-11.359l-27.164,115.27h-11.677l5.047-78.493c0.267-4.151-2.881-7.733-7.033-8-4.165-0.278-7.734,2.883-8,7.033l-5.11,79.46h-11.877c0,0-7.696-59.298-8.895-79.182-1.278-21.2-12.948-42.574-33.554-47.83-20.278-5.172-82.854-11.985-82.854-11.985zm177.097,22.244c-2.569-8.215-8.749-22.627-23.62-44.959-19.808-29.746-23.299-54.815-22.768-70.548 2.361,3.526 4.886,7.03 7.557,10.458 11.159,14.319 33.492,38.341 57.699,38.341 15.712,0 29.525-7.659 40.483-16.919-6.56,38.425-44.402,71.777-59.351,83.627zm18.867-81.772c-12.812,0-29.94-12.163-45.816-32.536-15.897-20.399-24.214-40.678-24.214-50.166 0-2.556 0.125-4.99 0.376-7.306l54.168,21.667c0.01,0.004 0.02,0.005 0.03,0.009 1.514,9.215 2.498,19.321 2.653,30.25-0.851,0.891-1.701,2.37-1.701,4.733 0,5.073 6.496,11.593 10.486,15.118v3.006h-6.414c-2.218,0-4.017,1.799-4.017,4.017 0,2.218 1.799,4.017 4.017,4.017h20.861c2.218,0 4.017-1.799 4.017-4.017 0-2.218-1.799-4.017-4.017-4.017h-6.414v-3.005c3.989-3.526 10.486-10.046 10.486-15.119 0-2.363-0.85-3.842-1.701-4.733 0.156-10.929 1.139-21.035 2.653-30.25 0.01-0.004 0.02-0.005 0.03-0.009l54.168-21.667c0.251,2.317 0.376,4.751 0.376,7.306 0.003,22.522-34.052,82.702-70.027,82.702z"/>
    <path d="m405.207,175.881c-1.035-1.024-2.461-1.617-3.907-1.617-1.455,0-2.881,0.592-3.906,1.617-1.024,1.024-1.617,2.45-1.617,3.907s0.593,2.882 1.617,3.907c1.025,1.024 2.451,1.617 3.906,1.617 1.447,0 2.873-0.592 3.907-1.617 1.024-1.035 1.616-2.45 1.616-3.907s-0.592-2.873-1.616-3.907z"/>
    <path d="m331.764,174.264c-1.456,0-2.882,0.592-3.907,1.617-1.024,1.024-1.616,2.45-1.616,3.907s0.592,2.872 1.616,3.907c1.025,1.024 2.451,1.617 3.907,1.617s2.882-0.592 3.906-1.617c1.025-1.035 1.617-2.45 1.617-3.907s-0.592-2.872-1.617-3.907c-1.034-1.025-2.449-1.617-3.906-1.617z"/>
  </g>
</svg>
