<?xml version="1.0" encoding="iso-8859-1"?>
<!-- Generator: Adobe Illustrator 19.0.0, SVG Export Plug-In . SVG Version: 6.00 Build 0)  -->
<svg version="1.1" id="Capa_1" xmlns="http://www.w3.org/2000/svg" xmlns:xlink="http://www.w3.org/1999/xlink" x="0px" y="0px"
	 viewBox="0 0 463 463" style="enable-background:new 0 0 463 463;" xml:space="preserve">
<g>
	<path d="M311.5,120H311V15.5C311,6.953,304.047,0,295.5,0h-128C158.953,0,152,6.953,152,15.5V120h-0.5
		c-12.958,0-23.5,10.542-23.5,23.5v216c0,57.07,46.43,103.5,103.5,103.5S335,416.57,335,359.5v-216
		C335,130.542,324.458,120,311.5,120z M167,15.5c0-0.275,0.224-0.5,0.5-0.5h128c0.276,0,0.5,0.225,0.5,0.5V120H167V15.5z M320,359.5
		c0,48.799-39.701,88.5-88.5,88.5S143,408.299,143,359.5v-216c0-4.687,3.813-8.5,8.5-8.5h160c4.687,0,8.5,3.813,8.5,8.5V359.5z"/>
	<path d="M191.5,32c-4.142,0-7.5,3.357-7.5,7.5v32c0,4.143,3.358,7.5,7.5,7.5s7.5-3.357,7.5-7.5v-32C199,35.357,195.642,32,191.5,32
		z"/>
	<path d="M271.5,32c-4.142,0-7.5,3.357-7.5,7.5v32c0,4.143,3.358,7.5,7.5,7.5s7.5-3.357,7.5-7.5v-32C279,35.357,275.642,32,271.5,32
		z"/>
	<path d="M295.5,240h-32c-4.142,0-7.5,3.357-7.5,7.5v32c0,3.498,2.397,6.427,5.636,7.257L239,309.394v-91.787l11.197,11.197
		c1.464,1.464,3.384,2.196,5.303,2.196s3.839-0.732,5.303-2.196c2.929-2.93,2.929-7.678,0-10.607l-24-24
		c-0.011-0.011-0.024-0.021-0.035-0.032c-0.164-0.162-0.335-0.318-0.514-0.465c-0.086-0.071-0.177-0.132-0.266-0.199
		c-0.107-0.08-0.212-0.163-0.323-0.238c-0.104-0.069-0.212-0.13-0.318-0.193c-0.104-0.062-0.206-0.127-0.313-0.185
		c-0.106-0.057-0.215-0.104-0.323-0.155c-0.114-0.054-0.227-0.111-0.344-0.159c-0.103-0.042-0.208-0.077-0.312-0.114
		c-0.127-0.046-0.252-0.094-0.381-0.133c-0.101-0.031-0.204-0.053-0.307-0.079c-0.135-0.035-0.268-0.072-0.406-0.099
		c-0.112-0.022-0.224-0.034-0.336-0.051c-0.13-0.02-0.258-0.043-0.39-0.056c-0.185-0.018-0.371-0.024-0.557-0.028
		c-0.06-0.001-0.118-0.009-0.178-0.009s-0.118,0.008-0.178,0.009c-0.186,0.004-0.372,0.01-0.557,0.028
		c-0.132,0.013-0.26,0.037-0.39,0.056c-0.112,0.017-0.224,0.029-0.336,0.051c-0.138,0.027-0.271,0.065-0.406,0.099
		c-0.102,0.026-0.205,0.048-0.306,0.079c-0.13,0.039-0.255,0.087-0.381,0.133c-0.104,0.038-0.209,0.072-0.312,0.114
		c-0.117,0.048-0.23,0.105-0.344,0.159c-0.108,0.051-0.217,0.099-0.323,0.155c-0.107,0.057-0.21,0.123-0.314,0.185
		c-0.106,0.063-0.213,0.123-0.317,0.192c-0.112,0.075-0.218,0.158-0.325,0.239c-0.088,0.066-0.179,0.127-0.265,0.198
		c-0.179,0.147-0.35,0.302-0.514,0.465c-0.011,0.011-0.024,0.021-0.035,0.032l-24,24c-2.929,2.93-2.929,7.678,0,10.607
		c1.464,1.464,3.384,2.196,5.303,2.196s3.839-0.732,5.303-2.196L224,217.607v91.786l-19.454-19.454
		c1.568-3.147,2.454-6.691,2.454-10.439c0-12.958-10.542-23.5-23.5-23.5S160,266.542,160,279.5s10.542,23.5,23.5,23.5
		c3.748,0,7.292-0.887,10.439-2.454L224,330.607v6.627c-9.29,3.138-16,11.93-16,22.266c0,12.958,10.542,23.5,23.5,23.5
		s23.5-10.542,23.5-23.5c0-10.336-6.71-19.128-16-22.266v-6.627L282.607,287H295.5c4.142,0,7.5-3.357,7.5-7.5v-32
		C303,243.357,299.642,240,295.5,240z M175,279.5c0-4.687,3.813-8.5,8.5-8.5s8.5,3.813,8.5,8.5s-3.813,8.5-8.5,8.5
		S175,284.187,175,279.5z M231.5,368c-4.687,0-8.5-3.813-8.5-8.5s3.813-8.5,8.5-8.5s8.5,3.813,8.5,8.5S236.187,368,231.5,368z
		 M288,272h-17v-17h17V272z"/>
</g>
<g>
</g>
<g>
</g>
<g>
</g>
<g>
</g>
<g>
</g>
<g>
</g>
<g>
</g>
<g>
</g>
<g>
</g>
<g>
</g>
<g>
</g>
<g>
</g>
<g>
</g>
<g>
</g>
<g>
</g>
</svg>
